<?xml version="1.0" standalone="no"?>
<!DOCTYPE svg PUBLIC "-//W3C//DTD SVG 20010904//EN"
 "http://www.w3.org/TR/2001/REC-SVG-20010904/DTD/svg10.dtd">
<svg version="1.0" xmlns="http://www.w3.org/2000/svg"
 width="60.000000pt" height="60.000000pt" viewBox="0 0 60.000000 60.000000"
 preserveAspectRatio="xMidYMid meet">
<metadata>
Created by potrace 1.10, written by Peter Selinger 2001-2011
</metadata>
<g transform="translate(0.000000,60.000000) scale(0.100000,-0.100000)"
fill="#000000" stroke="none">
<path d="M185 556 c-102 -47 -165 -143 -165 -252 0 -155 93 -259 258 -288 l32
-5 0 284 0 285 -37 0 c-21 0 -61 -11 -88 -24z m72 -38 c-67 -153 -153 -338
-158 -338 -11 0 -29 77 -29 124 0 87 54 169 135 207 47 22 59 23 52 7z m6
-150 c-6 -36 -19 -55 -29 -46 -8 9 15 78 27 78 4 0 6 -15 2 -32z m-3 -198 c0
-67 -4 -100 -11 -100 -17 0 -109 52 -109 61 0 5 14 38 32 74 28 57 36 65 60
65 l28 0 0 -100z"/>
<path d="M107 314 c-14 -14 -7 -35 11 -32 9 2 17 10 17 17 0 16 -18 25 -28 15z"/>
<path d="M340 300 l0 -282 28 7 c131 32 211 135 212 271 0 138 -83 247 -215
280 l-25 6 0 -282z m119 168 c75 -73 94 -183 47 -276 -21 -42 -90 -112 -110
-112 -3 0 -6 43 -6 95 l0 95 54 0 c39 0 55 4 60 15 12 33 -4 45 -60 45 l-54 0
0 95 c0 108 2 109 69 43z"/>
</g>
</svg>
